<?xml version="1.0" encoding="utf-8"?>
<!-- Generator: Adobe Illustrator 23.0.1, SVG Export Plug-In . SVG Version: 6.00 Build 0)  -->
<svg version="1.1" id="Layer_1" xmlns="http://www.w3.org/2000/svg" xmlns:xlink="http://www.w3.org/1999/xlink" x="0px" y="0px"
	 viewBox="0 0 553.59 695.58" style="enable-background:new 0 0 553.59 695.58;" xml:space="preserve">
<style type="text/css">
	.st0{fill:none;stroke:#000000;stroke-miterlimit:10;}
</style>
<g>
	<g>
		<polygon class="st0" points="315.39,250.69 315.39,549.66 264.1,520.05 238.41,505.22 212.71,490.38 187.01,475.54 161.32,460.71 
			135.62,445.87 135.62,326.27 161.32,341.11 187.01,355.94 212.71,370.78 212.71,400.67 238.41,415.51 238.41,295.93 
			212.71,281.09 187.01,266.26 187.01,236.36 212.71,251.2 238.41,266.03 264.1,280.87 264.1,460.24 238.41,445.4 212.71,430.57 
			187.01,415.73 187.01,385.84 161.32,371 161.32,430.79 187.01,445.63 212.71,460.46 238.41,475.3 264.1,490.14 289.74,504.94 
			289.74,265.78 264.1,250.97 238.41,236.14 212.71,221.3 187.01,206.47 161.32,191.63 161.32,281.32 187.01,296.15 212.71,310.99 
			212.71,340.88 187.01,326.05 161.32,311.21 135.62,296.38 135.62,146.9 161.32,161.74 187.01,176.57 212.71,191.41 238.41,206.24 
			264.1,221.08 289.74,235.88 		"/>
		<polygon class="st0" points="417.97,190.33 417.97,549.08 392.32,534.27 341.03,504.66 341.03,474.76 392.32,504.37 
			392.32,205.42 366.68,190.61 366.68,429.78 341.03,414.97 341.03,145.92 		"/>
	</g>
</g>
</svg>
