<?xml version="1.0" encoding="utf-8"?>
<!-- Generator: Adobe Illustrator 23.0.1, SVG Export Plug-In . SVG Version: 6.00 Build 0)  -->
<svg version="1.1" id="Layer_1" xmlns="http://www.w3.org/2000/svg" xmlns:xlink="http://www.w3.org/1999/xlink" x="0px" y="0px"
	 viewBox="0 0 1152 1152" style="enable-background:new 0 0 1152 1152;" xml:space="preserve">
<style type="text/css">
	.st0{fill:#FFFFFF;stroke:#231F20;stroke-width:3;stroke-miterlimit:10;}
</style>
<g>
	<polygon class="st0" points="684.36,303.38 684.36,1142.79 540.36,1059.65 468.22,1018 396.07,976.33 323.93,934.69 251.79,893.04 
		179.64,851.39 179.64,515.58 251.79,557.24 323.93,598.9 396.07,640.55 396.07,724.47 468.22,766.12 468.22,430.39 396.07,388.74 
		323.93,347.08 323.93,263.15 396.07,304.81 468.22,346.45 540.36,388.11 540.36,891.71 468.22,850.07 396.07,808.42 323.93,766.77 
		323.93,682.82 251.79,641.18 251.79,809.05 323.93,850.69 396.07,892.34 468.22,934.01 540.36,975.66 612.36,1017.23 
		612.36,345.75 540.36,304.18 468.22,262.52 396.07,220.88 323.93,179.23 251.79,137.58 251.79,389.38 323.93,431.02 396.07,472.68 
		396.07,556.61 323.93,514.96 251.79,473.31 179.64,431.65 179.64,11.99 251.79,53.64 323.93,95.29 396.07,136.94 468.22,178.6 
		540.36,220.25 612.36,261.82 	"/>
	<polygon class="st0" points="972.36,133.93 972.36,1141.14 900.36,1099.57 756.36,1016.43 756.36,932.48 900.36,1015.63 
		900.36,176.29 828.36,134.71 828.36,806.19 756.36,764.62 756.36,9.21 	"/>
</g>
</svg>
